<mxfile modified="2021-06-04T18:36:35.293Z" host="app.diagrams.net" agent="5.0 (Windows NT 10.0; Win64; x64) AppleWebKit/537.36 (KHTML, like Gecko) Chrome/91.0.4472.77 Safari/537.36 Edg/91.0.864.37" etag="xFkfMMwfk1LNUHFpXrMs" version="14.6.6" type="github">
  <diagram id="Ht1M8jgEwFfnCIfOTk4-" name="Page-1">
    <mxGraphModel dx="2390" dy="1508" grid="1" gridSize="10" guides="1" tooltips="1" connect="1" arrows="1" fold="1" page="1" pageScale="1" pageWidth="1169" pageHeight="827" math="0" shadow="0">
      <root>
        <mxCell id="0" />
        <mxCell id="1" parent="0" />
        <mxCell id="PzY0MD2hSYH9wSc8dCsg-56" value="" style="rounded=1;whiteSpace=wrap;html=1;" vertex="1" parent="1">
          <mxGeometry x="290" y="310" width="70" height="40" as="geometry" />
        </mxCell>
        <mxCell id="PzY0MD2hSYH9wSc8dCsg-2" value="SEARCH CRITERIA" style="text;html=1;strokeColor=none;fillColor=none;align=center;verticalAlign=middle;whiteSpace=wrap;rounded=0;" vertex="1" parent="1">
          <mxGeometry x="30" y="220" width="130" height="20" as="geometry" />
        </mxCell>
        <mxCell id="PzY0MD2hSYH9wSc8dCsg-6" value="" style="endArrow=classic;html=1;exitX=1;exitY=0.25;exitDx=0;exitDy=0;" edge="1" parent="1" source="PzY0MD2hSYH9wSc8dCsg-2" target="PzY0MD2hSYH9wSc8dCsg-7">
          <mxGeometry width="50" height="50" relative="1" as="geometry">
            <mxPoint x="590" y="400" as="sourcePoint" />
            <mxPoint x="240" y="250.26315789473665" as="targetPoint" />
          </mxGeometry>
        </mxCell>
        <mxCell id="PzY0MD2hSYH9wSc8dCsg-7" value="" style="rounded=1;whiteSpace=wrap;html=1;" vertex="1" parent="1">
          <mxGeometry x="290" y="230" width="70" height="40" as="geometry" />
        </mxCell>
        <mxCell id="PzY0MD2hSYH9wSc8dCsg-9" value="&lt;h1&gt;Command Pattern&lt;/h1&gt;&lt;p&gt;We can have different classes for each of the proveiders. But all the classes would have the same &lt;i&gt;interface &lt;/i&gt;ProviderSearch &lt;i&gt;{&lt;/i&gt;&lt;/p&gt;&lt;p&gt;&lt;i&gt;&amp;nbsp; &amp;nbsp;&lt;/i&gt;ProviderResponse &lt;i&gt;execute();&lt;/i&gt;&lt;/p&gt;&lt;p&gt;&lt;i&gt;}&lt;/i&gt;&lt;/p&gt;&lt;p&gt;&lt;i&gt;&lt;br&gt;&lt;/i&gt;&lt;/p&gt;&lt;p&gt;That way we garantee that for each new provider, we would have a new class, with a diffent implementation, a specific way of requesting results (with different timeouts, responses and protocol). But all the implementation would return the &lt;b&gt;ProviderResponse &lt;/b&gt;type..&lt;/p&gt;" style="text;html=1;strokeColor=none;fillColor=none;spacing=5;spacingTop=-20;whiteSpace=wrap;overflow=hidden;rounded=0;" vertex="1" parent="1">
          <mxGeometry x="-80" y="-190" width="190" height="366" as="geometry" />
        </mxCell>
        <mxCell id="PzY0MD2hSYH9wSc8dCsg-12" value="&lt;i&gt;ProviderSearch&lt;br&gt;&lt;span style=&quot;font-weight: normal&quot;&gt;&amp;lt;&amp;lt;interface&amp;gt;&amp;gt;&lt;/span&gt;&lt;/i&gt;" style="swimlane;fontStyle=1;align=center;verticalAlign=middle;childLayout=stackLayout;horizontal=1;startSize=29;horizontalStack=0;resizeParent=1;resizeParentMax=0;resizeLast=0;collapsible=0;marginBottom=0;html=1;" vertex="1" parent="1">
          <mxGeometry x="260" y="-170" width="250" height="54" as="geometry" />
        </mxCell>
        <mxCell id="PzY0MD2hSYH9wSc8dCsg-14" value="&lt;span&gt;ProviderResponse&amp;nbsp;&lt;/span&gt;&lt;span&gt;execute(SearchCriteria);&lt;/span&gt;" style="text;html=1;strokeColor=none;fillColor=none;align=left;verticalAlign=middle;spacingLeft=4;spacingRight=4;overflow=hidden;rotatable=0;points=[[0,0.5],[1,0.5]];portConstraint=eastwest;fontStyle=2" vertex="1" parent="PzY0MD2hSYH9wSc8dCsg-12">
          <mxGeometry y="29" width="250" height="25" as="geometry" />
        </mxCell>
        <mxCell id="PzY0MD2hSYH9wSc8dCsg-20" style="rounded=0;orthogonalLoop=1;jettySize=auto;html=1;" edge="1" parent="1" source="PzY0MD2hSYH9wSc8dCsg-18" target="PzY0MD2hSYH9wSc8dCsg-12">
          <mxGeometry relative="1" as="geometry" />
        </mxCell>
        <mxCell id="PzY0MD2hSYH9wSc8dCsg-18" value="MaldivasTravellingSearch" style="swimlane;fontStyle=1;align=center;verticalAlign=middle;childLayout=stackLayout;horizontal=1;startSize=29;horizontalStack=0;resizeParent=1;resizeParentMax=0;resizeLast=0;collapsible=0;marginBottom=0;html=1;" vertex="1" parent="1">
          <mxGeometry x="230" y="-40" width="250" height="54" as="geometry" />
        </mxCell>
        <mxCell id="PzY0MD2hSYH9wSc8dCsg-19" value="&lt;span style=&quot;font-style: normal&quot;&gt;&lt;span&gt;ProviderResponse&amp;nbsp;&lt;/span&gt;&lt;span&gt;execute(&lt;/span&gt;&lt;/span&gt;&lt;span style=&quot;font-style: normal&quot;&gt;SearchCriteria&lt;/span&gt;&lt;span style=&quot;font-style: normal&quot;&gt;&lt;span&gt;);&lt;/span&gt;&lt;/span&gt;" style="text;html=1;strokeColor=none;fillColor=none;align=left;verticalAlign=middle;spacingLeft=4;spacingRight=4;overflow=hidden;rotatable=0;points=[[0,0.5],[1,0.5]];portConstraint=eastwest;fontStyle=2" vertex="1" parent="PzY0MD2hSYH9wSc8dCsg-18">
          <mxGeometry y="29" width="250" height="25" as="geometry" />
        </mxCell>
        <mxCell id="PzY0MD2hSYH9wSc8dCsg-23" style="edgeStyle=none;rounded=0;orthogonalLoop=1;jettySize=auto;html=1;" edge="1" parent="1" source="PzY0MD2hSYH9wSc8dCsg-21" target="PzY0MD2hSYH9wSc8dCsg-12">
          <mxGeometry relative="1" as="geometry" />
        </mxCell>
        <mxCell id="PzY0MD2hSYH9wSc8dCsg-21" value="TripAdvisorSearch" style="swimlane;fontStyle=1;align=center;verticalAlign=middle;childLayout=stackLayout;horizontal=1;startSize=29;horizontalStack=0;resizeParent=1;resizeParentMax=0;resizeLast=0;collapsible=0;marginBottom=0;html=1;" vertex="1" parent="1">
          <mxGeometry x="510" y="-40" width="250" height="54" as="geometry" />
        </mxCell>
        <mxCell id="PzY0MD2hSYH9wSc8dCsg-22" value="&lt;span style=&quot;font-style: normal&quot;&gt;&lt;span&gt;ProviderResponse&amp;nbsp;&lt;/span&gt;&lt;span&gt;execute(&lt;/span&gt;&lt;/span&gt;&lt;span style=&quot;font-style: normal&quot;&gt;SearchCriteria&lt;/span&gt;&lt;span style=&quot;font-style: normal&quot;&gt;&lt;span&gt;);&lt;/span&gt;&lt;/span&gt;" style="text;html=1;strokeColor=none;fillColor=none;align=left;verticalAlign=middle;spacingLeft=4;spacingRight=4;overflow=hidden;rotatable=0;points=[[0,0.5],[1,0.5]];portConstraint=eastwest;fontStyle=2" vertex="1" parent="PzY0MD2hSYH9wSc8dCsg-21">
          <mxGeometry y="29" width="250" height="25" as="geometry" />
        </mxCell>
        <mxCell id="PzY0MD2hSYH9wSc8dCsg-24" value="GET /search" style="text;html=1;strokeColor=none;fillColor=none;align=center;verticalAlign=middle;whiteSpace=wrap;rounded=0;" vertex="1" parent="1">
          <mxGeometry x="260" y="-200" width="110" height="20" as="geometry" />
        </mxCell>
        <mxCell id="PzY0MD2hSYH9wSc8dCsg-25" value="POST /booking" style="text;html=1;strokeColor=none;fillColor=none;align=center;verticalAlign=middle;whiteSpace=wrap;rounded=0;" vertex="1" parent="1">
          <mxGeometry x="420" y="380" width="130" height="20" as="geometry" />
        </mxCell>
        <mxCell id="PzY0MD2hSYH9wSc8dCsg-26" value="&lt;i&gt;ProviderBooking&lt;br&gt;&lt;span style=&quot;font-weight: normal&quot;&gt;&amp;lt;&amp;lt;interface&amp;gt;&amp;gt;&lt;/span&gt;&lt;/i&gt;" style="swimlane;fontStyle=1;align=center;verticalAlign=middle;childLayout=stackLayout;horizontal=1;startSize=29;horizontalStack=0;resizeParent=1;resizeParentMax=0;resizeLast=0;collapsible=0;marginBottom=0;html=1;" vertex="1" parent="1">
          <mxGeometry x="450" y="410" width="280" height="54" as="geometry" />
        </mxCell>
        <mxCell id="PzY0MD2hSYH9wSc8dCsg-27" value="ProviderResponse&amp;nbsp;&lt;span style=&quot;font-style: normal&quot;&gt;book&lt;/span&gt;(BookingData);" style="text;html=1;strokeColor=none;fillColor=none;align=left;verticalAlign=middle;spacingLeft=4;spacingRight=4;overflow=hidden;rotatable=0;points=[[0,0.5],[1,0.5]];portConstraint=eastwest;fontStyle=2" vertex="1" parent="PzY0MD2hSYH9wSc8dCsg-26">
          <mxGeometry y="29" width="280" height="25" as="geometry" />
        </mxCell>
        <mxCell id="PzY0MD2hSYH9wSc8dCsg-32" style="edgeStyle=none;rounded=0;orthogonalLoop=1;jettySize=auto;html=1;" edge="1" parent="1" source="PzY0MD2hSYH9wSc8dCsg-28" target="PzY0MD2hSYH9wSc8dCsg-26">
          <mxGeometry relative="1" as="geometry" />
        </mxCell>
        <mxCell id="PzY0MD2hSYH9wSc8dCsg-28" value="MaldivasTravellingBooking" style="swimlane;fontStyle=1;align=center;verticalAlign=middle;childLayout=stackLayout;horizontal=1;startSize=29;horizontalStack=0;resizeParent=1;resizeParentMax=0;resizeLast=0;collapsible=0;marginBottom=0;html=1;" vertex="1" parent="1">
          <mxGeometry x="420" y="540" width="250" height="54" as="geometry" />
        </mxCell>
        <mxCell id="PzY0MD2hSYH9wSc8dCsg-29" value="&lt;span style=&quot;font-style: normal&quot;&gt;&lt;span&gt;ProviderResponse&amp;nbsp;&lt;/span&gt;&lt;/span&gt;&lt;span style=&quot;font-style: normal&quot;&gt;book&lt;/span&gt;&lt;span style=&quot;font-style: normal&quot;&gt;&lt;span&gt;(&lt;/span&gt;&lt;/span&gt;BookingData&lt;span style=&quot;font-style: normal&quot;&gt;&lt;span&gt;);&lt;/span&gt;&lt;/span&gt;" style="text;html=1;strokeColor=none;fillColor=none;align=left;verticalAlign=middle;spacingLeft=4;spacingRight=4;overflow=hidden;rotatable=0;points=[[0,0.5],[1,0.5]];portConstraint=eastwest;fontStyle=2" vertex="1" parent="PzY0MD2hSYH9wSc8dCsg-28">
          <mxGeometry y="29" width="250" height="25" as="geometry" />
        </mxCell>
        <mxCell id="PzY0MD2hSYH9wSc8dCsg-33" style="edgeStyle=none;rounded=0;orthogonalLoop=1;jettySize=auto;html=1;" edge="1" parent="1" source="PzY0MD2hSYH9wSc8dCsg-30" target="PzY0MD2hSYH9wSc8dCsg-26">
          <mxGeometry relative="1" as="geometry" />
        </mxCell>
        <mxCell id="PzY0MD2hSYH9wSc8dCsg-30" value="TripAdvisorBooking" style="swimlane;fontStyle=1;align=center;verticalAlign=middle;childLayout=stackLayout;horizontal=1;startSize=29;horizontalStack=0;resizeParent=1;resizeParentMax=0;resizeLast=0;collapsible=0;marginBottom=0;html=1;" vertex="1" parent="1">
          <mxGeometry x="700" y="540" width="250" height="54" as="geometry" />
        </mxCell>
        <mxCell id="PzY0MD2hSYH9wSc8dCsg-31" value="&lt;span style=&quot;font-style: normal&quot;&gt;&lt;span&gt;ProviderResponse&amp;nbsp;&lt;/span&gt;&lt;/span&gt;&lt;span style=&quot;font-style: normal&quot;&gt;book&lt;/span&gt;&lt;span style=&quot;font-style: normal&quot;&gt;&lt;span&gt;(&lt;/span&gt;&lt;/span&gt;BookingData&lt;span style=&quot;font-style: normal&quot;&gt;&lt;span&gt;);&lt;/span&gt;&lt;/span&gt;" style="text;html=1;strokeColor=none;fillColor=none;align=left;verticalAlign=middle;spacingLeft=4;spacingRight=4;overflow=hidden;rotatable=0;points=[[0,0.5],[1,0.5]];portConstraint=eastwest;fontStyle=2" vertex="1" parent="PzY0MD2hSYH9wSc8dCsg-30">
          <mxGeometry y="29" width="250" height="25" as="geometry" />
        </mxCell>
        <mxCell id="PzY0MD2hSYH9wSc8dCsg-34" value="" style="rounded=0;whiteSpace=wrap;html=1;" vertex="1" parent="1">
          <mxGeometry x="630" y="30" width="120" height="60" as="geometry" />
        </mxCell>
        <mxCell id="PzY0MD2hSYH9wSc8dCsg-36" value="" style="curved=1;endArrow=classic;html=1;" edge="1" parent="1" source="PzY0MD2hSYH9wSc8dCsg-7" target="PzY0MD2hSYH9wSc8dCsg-34">
          <mxGeometry width="50" height="50" relative="1" as="geometry">
            <mxPoint x="420" y="250" as="sourcePoint" />
            <mxPoint x="540" y="330" as="targetPoint" />
            <Array as="points">
              <mxPoint x="470" y="220" />
              <mxPoint x="400" y="100" />
              <mxPoint x="500" y="80" />
            </Array>
          </mxGeometry>
        </mxCell>
        <mxCell id="PzY0MD2hSYH9wSc8dCsg-37" value="ProviderSearch" style="text;html=1;strokeColor=none;fillColor=none;align=center;verticalAlign=middle;whiteSpace=wrap;rounded=0;" vertex="1" parent="1">
          <mxGeometry x="650" y="50" width="80" height="20" as="geometry" />
        </mxCell>
        <mxCell id="PzY0MD2hSYH9wSc8dCsg-39" value="" style="rounded=0;whiteSpace=wrap;html=1;" vertex="1" parent="1">
          <mxGeometry x="710" y="310" width="120" height="60" as="geometry" />
        </mxCell>
        <mxCell id="PzY0MD2hSYH9wSc8dCsg-40" value="" style="curved=1;endArrow=classic;html=1;" edge="1" parent="1" source="PzY0MD2hSYH9wSc8dCsg-56" target="PzY0MD2hSYH9wSc8dCsg-39">
          <mxGeometry width="50" height="50" relative="1" as="geometry">
            <mxPoint x="490" y="380" as="sourcePoint" />
            <mxPoint x="710" y="340" as="targetPoint" />
            <Array as="points">
              <mxPoint x="440" y="280" />
              <mxPoint x="550" y="330" />
            </Array>
          </mxGeometry>
        </mxCell>
        <mxCell id="PzY0MD2hSYH9wSc8dCsg-41" value="ProviderBooking" style="text;html=1;strokeColor=none;fillColor=none;align=center;verticalAlign=middle;whiteSpace=wrap;rounded=0;" vertex="1" parent="1">
          <mxGeometry x="730" y="330" width="80" height="20" as="geometry" />
        </mxCell>
        <mxCell id="PzY0MD2hSYH9wSc8dCsg-42" value="Using FeignClient&lt;br&gt;SOAP Requests&lt;br&gt;etc" style="rounded=0;whiteSpace=wrap;html=1;" vertex="1" parent="1">
          <mxGeometry x="820" y="14" width="160" height="60" as="geometry" />
        </mxCell>
        <mxCell id="PzY0MD2hSYH9wSc8dCsg-46" style="edgeStyle=none;rounded=0;orthogonalLoop=1;jettySize=auto;html=1;" edge="1" parent="1" source="PzY0MD2hSYH9wSc8dCsg-45" target="PzY0MD2hSYH9wSc8dCsg-56">
          <mxGeometry relative="1" as="geometry">
            <mxPoint x="220" y="300" as="targetPoint" />
          </mxGeometry>
        </mxCell>
        <mxCell id="PzY0MD2hSYH9wSc8dCsg-45" value="BOOKING" style="text;html=1;strokeColor=none;fillColor=none;align=center;verticalAlign=middle;whiteSpace=wrap;rounded=0;" vertex="1" parent="1">
          <mxGeometry x="30" y="260" width="130" height="20" as="geometry" />
        </mxCell>
        <mxCell id="PzY0MD2hSYH9wSc8dCsg-47" value="" style="rounded=0;whiteSpace=wrap;html=1;" vertex="1" parent="1">
          <mxGeometry x="306.25" y="230" width="32.5" height="14" as="geometry" />
        </mxCell>
        <mxCell id="PzY0MD2hSYH9wSc8dCsg-48" value="" style="rounded=0;whiteSpace=wrap;html=1;" vertex="1" parent="1">
          <mxGeometry x="306.25" y="310" width="38.75" height="10" as="geometry" />
        </mxCell>
        <mxCell id="PzY0MD2hSYH9wSc8dCsg-49" value="" style="rounded=0;whiteSpace=wrap;html=1;" vertex="1" parent="1">
          <mxGeometry x="320" y="252" width="33.75" height="16" as="geometry" />
        </mxCell>
        <mxCell id="PzY0MD2hSYH9wSc8dCsg-52" value="Cache" style="text;html=1;strokeColor=none;fillColor=none;align=center;verticalAlign=middle;whiteSpace=wrap;rounded=0;" vertex="1" parent="1">
          <mxGeometry x="295" y="268" width="40" height="20" as="geometry" />
        </mxCell>
        <mxCell id="PzY0MD2hSYH9wSc8dCsg-54" value="API&#39;s" style="text;html=1;strokeColor=none;fillColor=none;align=center;verticalAlign=middle;whiteSpace=wrap;rounded=0;" vertex="1" parent="1">
          <mxGeometry x="280" y="196" width="50" height="24" as="geometry" />
        </mxCell>
        <mxCell id="PzY0MD2hSYH9wSc8dCsg-59" value="" style="rounded=0;whiteSpace=wrap;html=1;" vertex="1" parent="1">
          <mxGeometry x="306.25" y="330" width="38.75" height="10" as="geometry" />
        </mxCell>
      </root>
    </mxGraphModel>
  </diagram>
</mxfile>
